0
SECTION
2
HEADER
9
$INSUNITS
70
4
9
$ACADVER
1
AC1014
9
$HANDSEED
5
FFFF
0
ENDSEC
0
SECTION
2
TABLES
0
TABLE
2
VPORT
5
8
100
AcDbSymbolTable
0
ENDTAB
0
TABLE
2
LTYPE
5
5
100
AcDbSymbolTable
0
LTYPE
5
14
100
AcDbSymbolTableRecord
100
AcDbLinetypeTableRecord
2
BYBLOCK
70
0
0
LTYPE
5
15
100
AcDbSymbolTableRecord
100
AcDbLinetypeTableRecord
2
BYLAYER
70
0
0
ENDTAB
0
TABLE
2
LAYER
5
2
100
AcDbSymbolTable
70
2
0
LAYER
5
50
100
AcDbSymbolTableRecord
100
AcDbLayerTableRecord
2
0
70
0
6
CONTINUOUS
0
ENDTAB
0
TABLE
2
STYLE
5
3
100
AcDbSymbolTable
70
1
0
STYLE
5
11
100
AcDbSymbolTableRecord
100
AcDbTextStyleTableRecord
2
STANDARD
70
0
0
ENDTAB
0
TABLE
2
VIEW
5
6
100
AcDbSymbolTable
70
0
0
ENDTAB
0
TABLE
2
UCS
5
7
100
AcDbSymbolTable
70
0
0
ENDTAB
0
TABLE
2
APPID
5
9
100
AcDbSymbolTable
70
2
0
APPID
5
12
100
AcDbSymbolTableRecord
100
AcDbRegAppTableRecord
2
ACAD
70
0
0
ENDTAB
0
TABLE
2
DIMSTYLE
5
A
100
AcDbSymbolTable
70
1
0
ENDTAB
0
TABLE
2
BLOCK_RECORD
5
1
100
AcDbSymbolTable
70
1
0
BLOCK_RECORD
5
1F
100
AcDbSymbolTableRecord
100
AcDbBlockTableRecord
2
*MODEL_SPACE
0
BLOCK_RECORD
5
1B
100
AcDbSymbolTableRecord
100
AcDbBlockTableRecord
2
*PAPER_SPACE
0
ENDTAB
0
ENDSEC
0
SECTION
2
BLOCKS
0
BLOCK
5
20
100
AcDbEntity
100
AcDbBlockBegin
2
*MODEL_SPACE
0
ENDBLK
5
21
100
AcDbEntity
100
AcDbBlockEnd
0
BLOCK
5
1C
100
AcDbEntity
100
AcDbBlockBegin
2
*PAPER_SPACE
0
ENDBLK
5
1D
100
AcDbEntity
100
AcDbBlockEnd
0
ENDSEC
0
SECTION
2
ENTITIES
0
LWPOLYLINE
5
100
100
AcDbEntity
8
0
100
AcDbPolyline
90
4
70
1
43
0.0
10
-204.93125000000003
20
21.575000000000003
10
-204.93125000000003
20
35.575000000000003
10
-218.93125000000001
20
35.575000000000003
10
-218.93125000000001
20
21.575000000000003
0
LWPOLYLINE
5
101
100
AcDbEntity
8
0
100
AcDbPolyline
90
4
70
1
43
0.0
10
-140.63749999999999
20
21.575000000000003
10
-140.63749999999999
20
35.575000000000003
10
-154.63749999999999
20
35.575000000000003
10
-154.63749999999999
20
21.575000000000003
0
LWPOLYLINE
5
102
100
AcDbEntity
8
0
100
AcDbPolyline
90
4
70
1
43
0.0
10
-159.6875
20
21.575000000000003
10
-159.6875
20
35.575000000000003
10
-173.68750000000003
20
35.575000000000003
10
-173.68750000000003
20
21.575000000000003
0
LWPOLYLINE
5
103
100
AcDbEntity
8
0
100
AcDbPolyline
90
4
70
1
43
0.0
10
-23.668750000000003
20
40.625
10
-9.6687499999999815
20
40.625
10
-9.6687499999999815
20
54.625
10
-23.668750000000003
20
54.625
0
LWPOLYLINE
5
104
100
AcDbEntity
8
0
100
AcDbPolyline
90
4
70
1
43
0.0
10
-131.11250000000001
20
40.625
10
-131.11250000000001
20
54.625
10
-145.11250000000001
20
54.625
10
-145.11250000000001
20
40.625
0
LWPOLYLINE
5
105
100
AcDbEntity
8
0
100
AcDbPolyline
90
4
70
1
43
0.0
10
-26.337499999999991
20
21.575000000000003
10
-26.337499999999991
20
35.575000000000003
10
-40.337500000000013
20
35.575000000000003
10
-40.337500000000013
20
21.575000000000003
0
LWPOLYLINE
5
106
100
AcDbEntity
8
0
100
AcDbPolyline
90
4
70
1
43
0.0
10
-207.02500000000001
20
59.675000000000004
10
-166.83125000000001
20
59.675000000000004
10
-166.83125000000001
20
73.674999999999997
10
-207.02500000000001
20
73.674999999999997
0
CIRCLE
5
107
100
AcDbEntity
8
0
100
AcDbCircle
10
-76.199999999999989
20
-2.9999999999999987
30
0
40
1.1000000000000032
210
0
220
-0
230
1
0
CIRCLE
5
108
100
AcDbEntity
8
0
100
AcDbCircle
10
2.4142135623730998
20
-2.4142135623730896
30
0
40
1.1000000000000005
210
0
220
-0
230
1
0
LWPOLYLINE
5
109
100
AcDbEntity
8
0
100
AcDbPolyline
90
4
70
1
43
0.0
10
-18.90625
20
21.575000000000003
10
-4.9062500000000142
20
21.575000000000003
10
-4.9062500000000142
20
35.575000000000003
10
-18.90625
20
35.575000000000003
0
CIRCLE
5
110
100
AcDbEntity
8
0
100
AcDbCircle
10
-231.0142135623731
20
78.614213562373095
30
0
40
1.0999999999999943
210
0
220
-0
230
1
0
LWPOLYLINE
5
111
100
AcDbEntity
8
0
100
AcDbPolyline
90
4
70
1
43
0.0
10
-4.9062500000000142
20
73.674999999999997
10
-21.287500000000001
20
73.674999999999997
10
-21.287500000000001
20
59.675000000000004
10
-4.9062500000000142
20
59.675000000000004
0
LWPOLYLINE
5
112
100
AcDbEntity
8
0
100
AcDbPolyline
90
4
70
1
43
0.0
10
-127.29325000000001
20
73.674999999999997
10
-127.29325000000001
20
57.674999999999997
10
-120.29325
20
57.674999999999997
10
-120.29325
20
73.674999999999997
0
LWPOLYLINE
5
113
100
AcDbEntity
8
0
100
AcDbPolyline
90
4
70
1
43
0.0
10
-173.97500000000002
20
16.524999999999999
10
-187.97499999999999
20
16.524999999999999
10
-187.97499999999999
20
2.5249999999999995
10
-173.97500000000002
20
2.5249999999999995
0
LWPOLYLINE
5
114
100
AcDbEntity
8
0
100
AcDbPolyline
90
4
70
1
43
0.0
10
-73.96250000000002
20
40.625
10
-73.96250000000002
20
54.625
10
-87.962500000000006
20
54.625
10
-87.962500000000006
20
40.625
0
LWPOLYLINE
5
115
100
AcDbEntity
8
0
100
AcDbPolyline
90
4
70
1
43
0.0
10
-209.69374999999999
20
73.674999999999997
10
-226.07500000000002
20
73.674999999999997
10
-226.07500000000002
20
59.675000000000004
10
-209.69374999999999
20
59.675000000000004
0
LWPOLYLINE
5
116
100
AcDbEntity
8
0
100
AcDbPolyline
90
4
70
1
43
0.0
10
-64.437500000000014
20
21.575000000000003
10
-64.437500000000014
20
35.575000000000003
10
-78.4375
20
35.575000000000003
10
-78.4375
20
21.575000000000003
0
LWPOLYLINE
5
117
100
AcDbEntity
8
0
100
AcDbPolyline
90
4
70
1
43
0.0
10
-113.06925
20
57.674999999999997
10
-106.06925000000001
20
57.674999999999997
10
-106.06925000000001
20
73.674999999999997
10
-113.06925
20
73.674999999999997
0
CIRCLE
5
118
100
AcDbEntity
8
0
100
AcDbCircle
10
-152.40000000000001
20
-2.9999999999999987
30
0
40
1.1000000000000119
210
0
220
-0
230
1
0
LWPOLYLINE
5
119
100
AcDbEntity
8
0
100
AcDbPolyline
90
4
70
1
43
0.0
10
-35.862499999999997
20
54.625
10
-49.862499999999997
20
54.625
10
-49.862499999999997
20
40.625
10
-35.862499999999997
20
40.625
0
CIRCLE
5
120
100
AcDbEntity
8
0
100
AcDbCircle
10
-231.0142135623731
20
-2.4142135623730896
30
0
40
1.0999999999999943
210
0
220
-0
230
1
0
LWPOLYLINE
5
121
100
AcDbEntity
8
0
100
AcDbPolyline
90
4
70
1
43
0.0
10
-112.0625
20
40.625
10
-112.0625
20
54.625
10
-126.06250000000001
20
54.625
10
-126.06250000000001
20
40.625
0
LWPOLYLINE
5
122
100
AcDbEntity
8
0
100
AcDbPolyline
90
4
70
1
43
0.0
10
-83.487500000000011
20
21.575000000000003
10
-83.487500000000011
20
35.575000000000003
10
-97.487500000000011
20
35.575000000000003
10
-97.487500000000011
20
21.575000000000003
0
CIRCLE
5
123
100
AcDbEntity
8
0
100
AcDbCircle
10
2.4142135623731065
20
78.614213562373095
30
0
40
1.1000000000000005
210
0
220
-0
230
1
0
LWPOLYLINE
5
124
100
AcDbEntity
8
0
100
AcDbPolyline
90
4
70
1
43
0.0
10
-188.26249999999999
20
40.625
10
-188.26249999999999
20
54.625
10
-204.64375000000004
20
54.625
10
-204.64375000000004
20
40.625
0
LWPOLYLINE
5
125
100
AcDbEntity
8
0
100
AcDbPolyline
90
4
70
1
43
0.0
10
-130.82499999999999
20
16.524999999999999
10
-130.82499999999999
20
2.5249999999999995
10
-116.82500000000002
20
2.5249999999999995
10
-116.82500000000002
20
16.524999999999999
0
LWPOLYLINE
5
126
100
AcDbEntity
8
0
100
AcDbPolyline
90
4
70
1
43
0.0
10
-54.912500000000009
20
40.625
10
-54.912500000000009
20
54.625
10
-68.912499999999994
20
54.625
10
-68.912499999999994
20
40.625
0
LWPOLYLINE
5
127
100
AcDbEntity
8
0
100
AcDbPolyline
90
4
70
1
43
0.0
10
-45.387500000000003
20
35.575000000000003
10
-59.387500000000003
20
35.575000000000003
10
-59.387500000000003
20
21.575000000000003
10
-45.387500000000003
20
21.575000000000003
0
LWPOLYLINE
5
128
100
AcDbEntity
8
0
100
AcDbPolyline
90
12
70
1
43
0.0
10
-81.106250000000003
20
59.675000000000004
10
-81.106250000000003
20
73.674999999999997
10
-104.63124999999999
20
73.674999999999997
10
-104.63124999999999
20
59.675000000000004
10
-103.54425000000001
20
59.675000000000004
10
-103.54425000000001
20
57.674999999999997
10
-96.544250000000019
20
57.674999999999997
10
-96.544250000000019
20
59.675000000000004
10
-89.193250000000006
20
59.675000000000004
10
-89.193250000000006
20
57.674999999999997
10
-82.193250000000006
20
57.674999999999997
10
-82.193250000000006
20
59.675000000000004
0
LWPOLYLINE
5
129
100
AcDbEntity
8
0
100
AcDbPolyline
90
4
70
1
43
0.0
10
-226.07500000000002
20
40.625
10
-209.69374999999999
20
40.625
10
-209.69374999999999
20
54.625
10
-226.07500000000002
20
54.625
0
LWPOLYLINE
5
130
100
AcDbEntity
8
0
100
AcDbPolyline
90
4
70
1
43
0.0
10
-59.675000000000011
20
2.5249999999999995
10
-59.675000000000011
20
16.524999999999999
10
-73.674999999999997
20
16.524999999999999
10
-73.674999999999997
20
2.5249999999999995
0
LWPOLYLINE
5
131
100
AcDbEntity
8
0
100
AcDbPolyline
90
4
70
1
43
0.0
10
-93.012500000000017
20
40.625
10
-93.012500000000017
20
54.625
10
-107.01250000000002
20
54.625
10
-107.01250000000002
20
40.625
0
LWPOLYLINE
5
132
100
AcDbEntity
8
0
100
AcDbPolyline
90
4
70
1
43
0.0
10
-35.57500000000001
20
2.5249999999999995
10
-21.574999999999989
20
2.5249999999999995
10
-21.574999999999989
20
16.524999999999999
10
-35.57500000000001
20
16.524999999999999
0
LWPOLYLINE
5
133
100
AcDbEntity
8
0
100
AcDbPolyline
90
4
70
1
43
0.0
10
-47.768750000000004
20
73.674999999999997
10
-68.912499999999994
20
73.674999999999997
10
-68.912499999999994
20
59.675000000000004
10
-47.768750000000004
20
59.675000000000004
0
LWPOLYLINE
5
134
100
AcDbEntity
8
0
100
AcDbPolyline
90
4
70
1
43
0.0
10
-45.100000000000016
20
59.675000000000004
10
-26.337499999999991
20
59.675000000000004
10
-26.337499999999991
20
73.674999999999997
10
-45.100000000000016
20
73.674999999999997
0
LWPOLYLINE
5
135
100
AcDbEntity
8
0
100
AcDbPolyline
90
4
70
1
43
0.0
10
-116.53750000000001
20
21.575000000000003
10
-102.53749999999999
20
21.575000000000003
10
-102.53749999999999
20
35.575000000000003
10
-116.53750000000001
20
35.575000000000003
0
LWPOLYLINE
5
136
100
AcDbEntity
8
0
100
AcDbPolyline
90
4
70
1
43
0.0
10
-2.5250000000000128
20
16.524999999999999
10
-16.524999999999999
20
16.524999999999999
10
-16.524999999999999
20
2.5249999999999995
10
-2.5250000000000128
20
2.5249999999999995
0
LWPOLYLINE
5
137
100
AcDbEntity
8
0
100
AcDbPolyline
90
4
70
1
43
0.0
10
-135.58750000000001
20
21.575000000000003
10
-121.58750000000001
20
21.575000000000003
10
-121.58750000000001
20
35.575000000000003
10
-135.58750000000001
20
35.575000000000003
0
LWPOLYLINE
5
138
100
AcDbEntity
8
0
100
AcDbPolyline
90
4
70
1
43
0.0
10
-111.77500000000002
20
16.524999999999999
10
-111.77500000000002
20
2.5249999999999995
10
-97.77500000000002
20
2.5249999999999995
10
-97.77500000000002
20
16.524999999999999
0
LWPOLYLINE
5
139
100
AcDbEntity
8
0
100
AcDbPolyline
90
4
70
1
43
0.0
10
-178.73750000000001
20
21.575000000000003
10
-178.73750000000001
20
35.575000000000003
10
-192.73750000000004
20
35.575000000000003
10
-192.73750000000004
20
21.575000000000003
0
CIRCLE
5
140
100
AcDbEntity
8
0
100
AcDbCircle
10
-76.199999999999989
20
79.200000000000003
30
0
40
1.1000000000000032
210
0
220
-0
230
1
0
LWPOLYLINE
5
141
100
AcDbEntity
8
0
100
AcDbPolyline
90
4
70
1
43
0.0
10
-79.66825
20
73.674999999999997
10
-79.66825
20
57.674999999999997
10
-72.66825
20
57.674999999999997
10
-72.66825
20
73.674999999999997
0
LWPOLYLINE
5
142
100
AcDbEntity
8
0
100
AcDbPolyline
90
4
70
1
43
0.0
10
-78.724999999999994
20
2.5249999999999995
10
-78.724999999999994
20
16.524999999999999
10
-92.724999999999994
20
16.524999999999999
10
-92.724999999999994
20
2.5249999999999995
0
LWPOLYLINE
5
143
100
AcDbEntity
8
0
100
AcDbPolyline
90
4
70
1
43
0.0
10
-168.92500000000001
20
2.5249999999999995
10
-154.92500000000001
20
2.5249999999999995
10
-154.92500000000001
20
16.524999999999999
10
-168.92500000000001
20
16.524999999999999
0
LWPOLYLINE
5
144
100
AcDbEntity
8
0
100
AcDbPolyline
90
4
70
1
43
0.0
10
-207.02500000000001
20
16.524999999999999
10
-207.02500000000001
20
2.5249999999999995
10
-193.02500000000003
20
2.5249999999999995
10
-193.02500000000003
20
16.524999999999999
0
LWPOLYLINE
5
145
100
AcDbEntity
8
0
100
AcDbPolyline
90
4
70
1
43
0.0
10
-164.16250000000002
20
40.625
10
-150.16249999999999
20
40.625
10
-150.16249999999999
20
54.625
10
-164.16250000000002
20
54.625
0
LWPOLYLINE
5
146
100
AcDbEntity
8
0
100
AcDbPolyline
90
4
70
1
43
0.0
10
-153.69425000000001
20
57.674999999999997
10
-153.69425000000001
20
73.674999999999997
10
-160.69425000000001
20
73.674999999999997
10
-160.69425000000001
20
57.674999999999997
0
LWPOLYLINE
5
147
100
AcDbEntity
8
0
100
AcDbPolyline
90
4
70
1
43
0.0
10
-40.625
20
2.5249999999999995
10
-40.625
20
16.524999999999999
10
-54.625
20
16.524999999999999
10
-54.625
20
2.5249999999999995
0
LWPOLYLINE
5
148
100
AcDbEntity
8
0
100
AcDbPolyline
90
4
70
1
43
0.0
10
-135.875
20
16.524999999999999
10
-149.875
20
16.524999999999999
10
-149.875
20
2.5249999999999995
10
-135.875
20
2.5249999999999995
0
LWPOLYLINE
5
149
100
AcDbEntity
8
0
100
AcDbPolyline
90
12
70
1
43
0.0
10
-136.81825000000001
20
59.675000000000004
10
-136.81825000000001
20
57.674999999999997
10
-129.81825000000001
20
57.674999999999997
10
-129.81825000000001
20
59.675000000000004
10
-128.73124999999999
20
59.675000000000004
10
-128.73124999999999
20
73.674999999999997
10
-152.25625000000002
20
73.674999999999997
10
-152.25625000000002
20
59.675000000000004
10
-151.16925000000003
20
59.675000000000004
10
-151.16925000000003
20
57.674999999999997
10
-144.16925000000001
20
57.674999999999997
10
-144.16925000000001
20
59.675000000000004
0
LWPOLYLINE
5
150
100
AcDbEntity
8
0
100
AcDbPolyline
90
4
70
1
43
0.0
10
-212.07499999999999
20
2.5249999999999995
10
-212.07499999999999
20
16.524999999999999
10
-226.07500000000002
20
16.524999999999999
10
-226.07500000000002
20
2.5249999999999995
0
CIRCLE
5
151
100
AcDbEntity
8
0
100
AcDbCircle
10
-152.40000000000001
20
79.200000000000003
30
0
40
1.1000000000000119
210
0
220
-0
230
1
0
LWPOLYLINE
5
152
100
AcDbEntity
8
0
100
AcDbPolyline
90
4
70
1
43
0.0
10
-169.21250000000001
20
40.625
10
-169.21250000000001
20
54.625
10
-183.21250000000003
20
54.625
10
-183.21250000000003
20
40.625
0
LWPOLYLINE
5
153
100
AcDbEntity
8
0
100
AcDbPolyline
90
8
70
1
43
0.0
10
-230.60000000000002
20
-6.0000000000000124
42
-0.41421356237309687
10
-234.60000000000002
20
-2.0000000000000018
10
-234.60000000000002
20
78.199999999999989
42
-0.4142135623730977
10
-230.60000000000002
20
82.200000000000017
10
2.0000000000000284
20
82.200000000000003
42
-0.41421356237309248
10
6.0000000000000142
20
78.200000000000003
10
6.0000000000000071
20
-1.9999999999999749
42
-0.41421356237309709
10
1.9999999999999929
20
-6.0000000000000009
0
ENDSEC
0
SECTION
2
OBJECTS
0
DICTIONARY
5
C
100
AcDbDictionary
3
ACAD_GROUP
350
D
3
ACAD_MLINESTYLE
350
17
0
DICTIONARY
5
D
100
AcDbDictionary
0
DICTIONARY
5
1A
330
C
100
AcDbDictionary
0
DICTIONARY
5
17
100
AcDbDictionary
0
ENDSEC
0
EOF
